<svg width="26" height="29" viewBox="0 0 26 29" fill="none" xmlns="http://www.w3.org/2000/svg">
<g clip-path="url(#clip0_55_27)">
<path fill-rule="evenodd" clip-rule="evenodd" d="M15.5054 10.0855C16.4427 9.65363 17.6353 9.01791 18.8294 8.14692C19.0812 8.63003 19.1087 9.05161 18.979 9.39202C18.8871 9.63192 18.7139 9.84059 18.4861 10.0066C18.2395 10.186 17.9314 10.3166 17.5909 10.3872C16.9448 10.5217 16.1904 10.4432 15.5054 10.0855ZM15.6679 14.5104L16.9087 15.1726C14.3753 16.4846 13.6866 18.9208 12.8685 21.2937C12.0505 18.9208 11.3617 16.4846 8.82846 15.1726L10.0692 14.5104C10.1892 14.4685 10.2918 14.3925 10.3623 14.2934C10.4327 14.1943 10.4674 14.0772 10.4614 13.9587C10.3477 11.7365 10.9971 10.7538 11.873 10.1367C12.1872 9.91571 12.5301 9.80472 12.8685 9.80472C13.2069 9.80472 13.5498 9.91571 13.8641 10.1367C14.74 10.7538 15.3894 11.7365 15.2757 13.9587C15.2697 14.0772 15.3044 14.1943 15.3749 14.2934C15.4453 14.3925 15.5479 14.4685 15.6679 14.5104ZM12.8685 -3.05176e-05C14.3027 0.035549 15.7404 0.292816 16.9882 0.793289C17.8523 1.14031 18.6585 1.59869 19.3886 2.14682C19.7183 2.39427 19.9897 2.63333 20.2888 2.90852C21.0954 2.93429 22.2741 2.10633 22.8213 1.33161C21.8796 4.18457 17.5819 7.55368 14.6066 8.84285C14.6054 8.84238 14.6046 8.84172 14.6037 8.84115C14.0697 8.4644 13.4692 8.27603 12.8685 8.27603C12.2678 8.27603 11.6674 8.4644 11.1334 8.84115C11.1325 8.84162 11.1317 8.84247 11.1305 8.84285C8.15508 7.55368 3.85756 4.18457 2.91577 1.33161C3.46291 2.10633 4.64165 2.93429 5.4482 2.90852C5.74736 2.63342 6.01883 2.39427 6.34842 2.14682C7.07848 1.59869 7.88473 1.14031 8.74879 0.793289C9.99668 0.292816 11.4344 0.035549 12.8685 -3.05176e-05ZM10.2316 10.0855C9.2944 9.65363 8.10167 9.01791 6.90771 8.14692C6.65595 8.63003 6.62837 9.05161 6.75798 9.39202C6.85 9.63192 7.02322 9.84059 7.25088 10.0066C7.49764 10.186 7.80568 10.3166 8.1462 10.3872C8.7923 10.5217 9.54657 10.4432 10.2316 10.0855Z" fill="white"/>
<path fill-rule="evenodd" clip-rule="evenodd" d="M20.1376 7.07957C20.795 6.46661 21.3742 5.78814 21.8399 5.18272L22.0764 5.59411C22.838 7.0019 23.2336 8.40404 23.2336 9.98199L23.232 12.486L23.2463 13.784C23.3014 16.9707 24.0476 20.1948 25.738 23.1454L22.2013 20.5102L19.6989 24.2625L17.07 21.9757L12.869 28.2752L8.66798 21.9758L6.03913 24.2626L3.53672 20.5103L0 23.1455C1.69033 20.1949 2.43653 16.9708 2.49178 13.7841L2.50608 12.4861L2.50445 9.98209C2.50445 8.40404 2.90002 7.0019 3.66174 5.5942L3.89818 5.18282C4.36391 5.78824 4.94302 6.46661 5.60046 7.07967L5.39517 7.47369C4.99633 8.23898 4.86427 9.09468 5.17497 9.90848C5.37525 10.4326 5.74079 10.8821 6.21204 11.2253C6.66961 11.5585 7.21112 11.7831 7.77808 11.9011C8.14739 11.9779 8.52366 12.0096 8.89747 11.9988C8.81025 12.4557 8.77215 12.9295 8.7697 13.4124L5.43357 15.1928L8.00798 16.5263C8.21375 16.6329 8.40963 16.755 8.59362 16.8914C10.7161 18.6523 11.9922 23.8615 12.8691 26.406C13.7461 23.8615 15.0221 18.6523 17.1447 16.8914C17.3286 16.755 17.5245 16.6328 17.7303 16.5263L20.3047 15.1928L16.9685 13.4124C16.966 12.9295 16.9279 12.4557 16.8407 11.9988C17.2145 12.0096 17.5908 11.9779 17.9601 11.9011C18.527 11.7831 19.0687 11.5585 19.5261 11.2253C19.9973 10.8821 20.3629 10.4326 20.5631 9.90848C20.8739 9.09468 20.7417 8.23907 20.343 7.47369L20.1377 7.07967L20.1376 7.07957Z" fill="white"/>
</g>
<defs>
<clipPath id="clip0_55_27">
<rect width="25.738" height="28.3126" fill="white"/>
</clipPath>
</defs>
</svg>
